<?xml version="1.0" encoding="UTF-8" standalone="no"?>
<!-- Created with Inkscape (http://www.inkscape.org/) -->

<svg
   xmlns:dc="http://purl.org/dc/elements/1.1/"
   xmlns:cc="http://creativecommons.org/ns#"
   xmlns:rdf="http://www.w3.org/1999/02/22-rdf-syntax-ns#"
   xmlns:svg="http://www.w3.org/2000/svg"
   xmlns="http://www.w3.org/2000/svg"
   xmlns:xlink="http://www.w3.org/1999/xlink"
   xmlns:sodipodi="http://sodipodi.sourceforge.net/DTD/sodipodi-0.dtd"
   xmlns:inkscape="http://www.inkscape.org/namespaces/inkscape"
   width="370.87653mm"
   height="90.143562mm"
   viewBox="0 0 1314.1294 319.40632"
   id="svg2"
   version="1.1"
   inkscape:version="0.92.2 (5c3e80d, 2017-08-06)"
   sodipodi:docname="cbrain.svg">
  <defs
     id="defs4">
    <linearGradient
       inkscape:collect="always"
       id="linearGradient950-4-9">
      <stop
         style="stop-color:#02b3dc;stop-opacity:1"
         offset="0"
         id="stop946" />
      <stop
         style="stop-color:#d3d3d3;stop-opacity:1"
         offset="1"
         id="stop948" />
    </linearGradient>
    <linearGradient
       inkscape:collect="always"
       xlink:href="#linearGradient950-4-9"
       id="linearGradient954"
       x1="660.56451"
       y1="386.31009"
       x2="1526.2555"
       y2="386.31009"
       gradientUnits="userSpaceOnUse" />
  </defs>
  <sodipodi:namedview
     id="base"
     pagecolor="#ffffff"
     bordercolor="#666666"
     borderopacity="1.0"
     inkscape:pageopacity="0.0"
     inkscape:pageshadow="2"
     inkscape:zoom="0.49497475"
     inkscape:cx="255.36161"
     inkscape:cy="302.51881"
     inkscape:document-units="px"
     inkscape:current-layer="layer1"
     showgrid="false"
     inkscape:window-width="1920"
     inkscape:window-height="1032"
     inkscape:window-x="0"
     inkscape:window-y="22"
     inkscape:window-maximized="0"
     fit-margin-top="0"
     fit-margin-left="0"
     fit-margin-right="0"
     fit-margin-bottom="0" />
  <metadata
     id="metadata7">
    <rdf:RDF>
      <cc:Work
         rdf:about="">
        <dc:format>image/svg+xml</dc:format>
        <dc:type
           rdf:resource="http://purl.org/dc/dcmitype/StillImage" />
        <dc:title />
      </cc:Work>
    </rdf:RDF>
  </metadata>
  <g
     inkscape:label="Layer 1"
     inkscape:groupmode="layer"
     id="layer1"
     transform="translate(-448.16315,-723.18913)">
    <g
       style="fill:#0629a7;fill-opacity:1"
       transform="translate(329.86788,497.44643)"
       id="g918" />
    <g
       id="g992"
       transform="translate(339.86788,475.44643)"
       inkscape:export-filename="/Users/gkiar/Desktop/cbrain_banner.png"
       inkscape:export-xdpi="300.08798"
       inkscape:export-ydpi="300.08798">
      <g
         id="g1053">
        <path
           inkscape:connector-curvature="0"
           d="m 541.68892,394.82686 c 22.17264,-11.21657 31.79747,-27.65312 34.82022,-49.38822 0.79132,-5.60486 -1.37923,-39.15026 -22.28799,-44.03133 -15.3491,-29.34684 -34.15086,-26.54181 -61.69307,-25.24146 -8.11274,-14.13501 -29.56481,-17.96324 -49.041,-17.96324 -5.00205,0 -9.97919,0.62056 -14.72407,1.81343 -7.40766,-7.62602 -18.76385,-12.27334 -30.95787,-12.27334 -21.78331,0 -39.50093,14.47977 -39.50093,32.27525 v 62.92961 c 0,14.05227 7.66481,27.30471 20.32336,36.32956 -12.79128,9.55666 -20.32336,23.16765 -20.32336,37.7293 v 71.03274 c 0.10485,34.75707 0,11.08142 0,33.93385 0,24.9052 24.8028,45.17602 55.27849,45.17602 19.94178,0 37.89996,-8.65338 47.67176,-22.27816 4.63363,3.84645 14.45373,10.94088 22.39716,11.36127 22.2402,1.17703 54.72272,-2.93471 55.2785,-27.44602 15.64205,0.33 27.35368,-1.46289 33.83615,-7.74011 10.34161,-10.01416 24.63599,-33.31666 12.65671,-56.28103 7.77463,-22.15231 -4.44812,-46.72749 -16.21635,-57.2 -11.27187,-10.03081 -19.2128,-11.7947 -27.51771,-12.73812 z"
           id="path940"
           sodipodi:nodetypes="ccccscssscsccscscscsc"
           style="fill:#02b3dc;fill-opacity:1" />
        <path
           style="fill:#0629a7;fill-opacity:1"
           sodipodi:nodetypes="ccccscssscsccscscscsccccccscccccsccsccccscccsssccssccsccccssccsccsssscascssssc"
           id="path904"
           d="m 541.68892,394.82686 c 22.17264,-11.21657 31.79747,-27.65312 34.82022,-49.38822 0.79132,-5.60486 -1.37923,-39.15026 -22.28799,-44.03133 -15.3491,-29.34684 -34.15086,-26.54181 -61.69307,-25.24146 -8.11274,-14.13501 -29.56481,-17.96324 -49.041,-17.96324 -5.00205,0 -9.97919,0.62056 -14.72407,1.81343 -7.40766,-7.62602 -18.76385,-12.27334 -30.95787,-12.27334 -21.78331,0 -39.50093,14.47977 -39.50093,32.27525 v 62.92961 c 0,14.05227 7.66481,27.30471 20.32336,36.32956 -12.79128,9.55666 -20.32336,23.16765 -20.32336,37.7293 v 71.03274 c 0.10485,34.75707 0,11.08142 0,33.93385 0,24.9052 24.8028,45.17602 55.27849,45.17602 19.94178,0 37.89996,-8.65338 47.67176,-22.27816 4.63363,3.84645 14.45373,10.94088 22.39716,11.36127 22.2402,1.17703 54.72272,-2.93471 55.2785,-27.44602 15.64205,0.33 27.35368,-1.46289 33.83615,-7.74011 10.34161,-10.01416 24.63599,-33.31666 12.65671,-56.28103 7.77463,-22.15231 -4.44812,-46.72749 -16.21635,-57.2 -11.27187,-10.03081 -19.2128,-11.7947 -27.51771,-12.73812 z m -3.90355,117.23254 c -5.15283,-15.03057 -15.76926,-25.905 -16.42459,-26.41524 -3.93195,-3.05454 -10.13679,-2.91664 -13.88624,0.29649 -3.73286,3.21313 -3.56696,8.29484 0.36499,11.34938 8.54747,6.26712 16.50165,28.7498 12.24871,34.53791 -5.09022,7.30573 -16.80283,8.38768 -36.46153,8.38768 -4.77806,0 -11.51272,-4.79678 -13.69545,-9.82366 4.3633,-9.52906 5.13475,-23.85025 -8.32014,-39.14278 -12.96979,-9.80367 -20.31204,6.45864 -14.90655,10.58488 12.26866,14.95553 3.54206,25.45682 2.32266,26.77982 -0.68039,0.81414 -1.02954,1.72354 -1.60099,2.46156 -4.80294,11.99752 -18.41544,20.05793 -33.86948,20.05793 -19.65145,0 -35.64364,-13.07316 -35.64364,-29.13105 v -33.94168 -71.05343 c 0,-12.92146 8.66023,-24.76729 22.58795,-30.90311 0.23227,-0.10342 0.40647,-0.262 0.63044,-0.37922 0.12442,-0.062 0.27374,-0.0689 0.39817,-0.1379 2.14018,-1.22734 21.55105,-11.55623 42.04757,2.70978 1.84984,1.28249 4.11444,1.90995 6.36245,1.90995 2.77062,0 5.53294,-0.95842 7.48232,-2.82011 3.50889,-3.37172 3.01947,-8.43963 -1.11156,-11.3149 -22.62114,-15.73468 -46.96666,-11.96305 -60.57086,-6.30905 -10.94973,-5.86085 -17.82648,-15.976 -17.82648,-26.82204 v -62.92445 c 0,-8.94988 8.90909,-16.22424 19.86711,-16.22424 6.86847,0 13.06501,3.05454 16.66515,7.76391 -1.742,6.53658 -5.87304,15.58989 -11.88709,18.49963 -4.67022,2.25471 -6.20484,7.17783 -3.44252,10.99084 1.83325,2.53051 5.10157,3.93022 8.45285,3.93022 1.70052,0 3.42594,-0.35854 4.99374,-1.1239 13.04843,-6.31594 18.6726,-20.48543 20.81278,-28.02095 3.23515,-0.93774 6.61131,-1.59277 10.08702,-1.59277 12.99036,0 28.38688,1.32529 32.48473,11.33702 0.11613,4.44046 -0.22397,22.20231 -12.32673,33.27503 -11.21833,12.76127 8.00507,20.51292 14.7562,10.6185 12.52583,-11.52867 16.03472,-26.93152 16.9389,-36.67433 11.15642,-5.0777 43.05631,-2.20566 43.05631,16.31348 0,1.36523 -5.50122,9.67036 -5.50122,9.67036 -2.70562,5.71853 -8.43361,7.02956 -12.26206,9.27474 -4.55409,2.4064 -5.85644,7.3709 -2.91163,11.09427 1.88302,2.37192 5.03522,3.6682 8.25377,3.6682 1.82496,0 3.6748,-0.4137 5.31726,-1.28249 9.2492,-4.88175 17.52251,-17.33656 19.46361,-24.33512 11.42903,8.37193 11.79644,35.3842 6.75283,44.7526 -6.3878,11.86523 -15.26208,18.16775 -27.76842,21.24762 -7.78516,1.91721 -30.17531,3.54933 -36.90467,5.55651 -20.25625,6.04188 -37.37747,15.9222 -29.93603,25.3712 5.98853,7.60411 14.80425,1.26983 19.47198,-1.6045 10.51113,-5.59508 23.0944,-11.08203 35.48804,-11.0915 13.79251,-0.0105 31.30267,6.97288 39.5124,12.28301 8.80356,5.69423 18.91356,20.0049 16.71648,38.63227 -14.3722,-8.92876 -25.42267,-7.32084 -27.9206,-7.13434 -14.78709,1.10404 -13.49988,15.82484 -2.53715,15.60381 6.70769,-0.13524 18.27401,1.04793 23.52601,5.65723 6.8673,6.02693 9.96418,19.2136 5.87037,32.22125 -3.90646,12.41236 -18.01847,19.15635 -35.21717,13.36568 z"
           inkscape:connector-curvature="0" />
      </g>
      <g
         id="g1000">
        <path
           sodipodi:type="star"
           style="opacity:1;fill:#f71d00;fill-opacity:1;stroke:#f71d00;stroke-width:0.37490052;stroke-linejoin:round;stroke-miterlimit:4;stroke-dasharray:none;stroke-opacity:1"
           id="path906"
           sodipodi:sides="3"
           sodipodi:cx="331.77182"
           sodipodi:cy="505.18161"
           sodipodi:r1="32.327686"
           sodipodi:r2="16.163843"
           sodipodi:arg1="-2.8257359"
           sodipodi:arg2="-1.7785383"
           inkscape:flatsided="false"
           inkscape:rounded="0"
           inkscape:randomized="0"
           d="m 301.04337,495.13963 27.39464,-5.77433 27.39465,-5.77432 -8.69661,26.61162 -8.69661,26.61162 -18.69804,-20.83729 z"
           inkscape:transform-center-x="0.54540992"
           inkscape:transform-center-y="-3.5102603"
           transform="rotate(-1.347893,-7.2310781,652.04264)" />
        <path
           sodipodi:nodetypes="cccsccscccsscscscc"
           d="m 245.87379,529.90915 c -24.13331,0 -45.92359,-5.91731 -65.37082,-17.75194 -19.21293,-11.83463 -34.44268,-28.17156 -45.68927,-49.01078 -11.01229,-20.83923 -16.51843,-44.25121 -16.51843,-70.23594 0,-25.98472 5.50614,-49.3967 16.51843,-70.23593 11.24659,-20.83923 26.47634,-37.17616 45.68927,-49.01078 19.44723,-11.83463 41.23751,-17.75194 65.37082,-17.75194 17.8071,0 34.20838,3.21593 49.20383,9.64778 14.99545,6.17459 27.76502,15.43648 38.3087,27.78565 l -11.24659,12.73509 c -19.68154,-21.35378 -44.86922,-32.03067 -75.56303,-32.03067 -20.61875,0 -39.36307,5.14549 -56.23296,15.43646 -16.86989,10.29098 -30.10806,24.56971 -39.71452,42.8362 -9.60647,18.00921 -14.4097,38.20526 -14.4097,60.58814 0,22.38288 4.80323,42.70756 14.4097,60.97405 9.60646,18.00921 22.84463,32.15931 39.71452,42.45029 16.86989,10.29097 35.61421,15.43646 56.23296,15.43646 -0.70291,18.13786 0,0 -0.70291,18.13786 z"
           style="font-style:normal;font-variant:normal;font-weight:300;font-stretch:normal;font-size:medium;line-height:125%;font-family:Montserrat;-inkscape-font-specification:'Montserrat Light';letter-spacing:0px;word-spacing:0px;fill:#0629a7;fill-opacity:1;stroke:none;stroke-width:1px;stroke-linecap:butt;stroke-linejoin:miter;stroke-opacity:1"
           id="path908"
           inkscape:connector-curvature="0"
           transform="translate(-10,22.000001)" />
        <path
           inkscape:connector-curvature="0"
           id="path910"
           style="font-style:normal;font-variant:normal;font-weight:300;font-stretch:normal;font-size:medium;line-height:125%;font-family:Montserrat;-inkscape-font-specification:'Montserrat Light';letter-spacing:0px;word-spacing:0px;fill:#0629a7;fill-opacity:1;stroke:none;stroke-width:1px;stroke-linecap:butt;stroke-linejoin:miter;stroke-opacity:1"
           d="m 245.65058,529.89066 0.67359,-18.11937 c 8.50295,0 16.84761,-0.84205 24.52891,-2.52616 l 2.79076,17.75772 c -8.86848,1.93753 -18.34838,2.88781 -27.99326,2.88781 z"
           sodipodi:nodetypes="ccccc"
           transform="translate(-10,22.000001)" />
        <path
           inkscape:connector-curvature="0"
           id="path912"
           style="font-style:normal;font-variant:normal;font-weight:300;font-stretch:normal;font-size:medium;line-height:125%;font-family:Montserrat;-inkscape-font-specification:'Montserrat Light';letter-spacing:0px;word-spacing:0px;fill:#f71d00;fill-opacity:1;stroke:none;stroke-width:1px;stroke-linecap:butt;stroke-linejoin:miter;stroke-opacity:1"
           d="m 286.78975,504.30445 c 6.22812,-2.5433 12.13926,-5.73631 17.73341,-9.57903 8.59836,15.56459 0,0 8.59836,15.56459 -5.69608,3.87397 -11.82787,7.19775 -18.39536,9.97135 z"
           sodipodi:nodetypes="ccccc"
           transform="translate(-10,22.000001)" />
        <path
           inkscape:connector-curvature="0"
           id="path914"
           style="font-style:normal;font-variant:normal;font-weight:300;font-stretch:normal;font-size:medium;line-height:125%;font-family:Montserrat;-inkscape-font-specification:'Montserrat Light';letter-spacing:0px;word-spacing:0px;fill:#f71d00;fill-opacity:1;stroke:none;stroke-width:1px;stroke-linecap:butt;stroke-linejoin:miter;stroke-opacity:1"
           d="m 314.33724,487.02968 c 2.68501,-2.38578 5.28584,-4.94411 7.80249,-7.67497 l 11.24659,12.73509 c -2.41285,2.82603 -4.94841,5.49711 -7.60667,8.01326 -11.44241,-13.07338 0,0 -11.44241,-13.07338 z"
           sodipodi:nodetypes="ccccc"
           transform="translate(-10,22.000001)" />
        <path
           sodipodi:nodetypes="ccccc"
           d="m 250.51194,529.76439 -0.21029,-18.05623 c 8.62921,-0.44195 12.87013,-0.77892 20.55143,-2.46303 l 2.79076,17.75772 c -8.86848,1.93753 -13.48702,2.76154 -23.1319,2.76154 z"
           style="font-style:normal;font-variant:normal;font-weight:300;font-stretch:normal;font-size:medium;line-height:125%;font-family:Montserrat;-inkscape-font-specification:'Montserrat Light';letter-spacing:0px;word-spacing:0px;fill:#f71d00;fill-opacity:1;stroke:none;stroke-width:1px;stroke-linecap:butt;stroke-linejoin:miter;stroke-opacity:1"
           id="path916"
           inkscape:connector-curvature="0"
           transform="translate(-10,22.000001)" />
      </g>
      <text
         xml:space="preserve"
         style="font-style:normal;font-weight:normal;font-size:371.99020386px;line-height:1.25;font-family:sans-serif;letter-spacing:0px;word-spacing:0px;fill:url(#linearGradient954);fill-opacity:1;stroke:none;stroke-width:9.2997551"
         x="618.15765"
         y="516.50665"
         id="text944"
         transform="scale(0.93197028,1.0729956)"><tspan
           sodipodi:role="line"
           id="tspan942"
           x="618.15765"
           y="516.50665"
           style="font-style:normal;font-variant:normal;font-weight:normal;font-stretch:normal;font-family:Montserrat;-inkscape-font-specification:Montserrat;fill:url(#linearGradient954);fill-opacity:1;stroke-width:9.2997551">RAIN</tspan></text>
    </g>
  </g>
</svg>
